<svg xmlns="http://www.w3.org/2000/svg" width="210" height="136" viewBox="0 0 210 136">
  <defs>
    <style>
      .cls-1 {
        fill: none;
      }

      .cls-2, .cls-3, .cls-5 {
        fill: #21289e;
      }

      .cls-2 {
        font-size: 21px;
        letter-spacing: 0.08em;
      }

      .cls-2, .cls-3 {
        font-family: PangMenZhengDao;
      }

      .cls-3 {
        font-size: 10px;
        letter-spacing: 0.02em;
      }

      .cls-4 {
        fill: #3599ff;
      }

      .cls-6 {
        fill: #fff;
      }

      .cls-7 {
        fill: #a8e12c;
      }

      .cls-8 {
        fill: #ff279d;
      }

      .cls-9 {
        fill: #ffd52b;
      }
    </style>
  </defs>
  <g id="logo" transform="translate(-13.316 -0.6)">
    <rect id="矩形_2247" data-name="矩形 2247" class="cls-1" width="210" height="136" transform="translate(13.316 0.6)"/>
    <g id="组_28" data-name="组 28" transform="translate(77.62 67.18)">
      <text id="玖拾捌度" class="cls-2" transform="translate(26.272 18)"><tspan x="0" y="0">玖拾捌度</tspan></text>
      <text id="Ninety-Eight_Degrees" data-name="Ninety-Eight Degrees" class="cls-3" transform="translate(6 30.436)"><tspan x="0" y="0">Ninety-Eight Degrees</tspan></text>
    </g>
    <g id="组_39" data-name="组 39" transform="translate(48.774 35.503)">
      <g id="组_34" data-name="组 34" transform="translate(2.715 0)">
        <path id="路径_35" data-name="路径 35" class="cls-4" d="M1163.39,417.494a18.8,18.8,0,1,0-22.863,19.312,18.862,18.862,0,0,1,.058,11.011,30.294,30.294,0,0,0,22.829-29.356C1163.414,418.137,1163.4,417.816,1163.39,417.494Z" transform="translate(-1124.847 -398.69)"/>
        <path id="路径_36" data-name="路径 36" class="cls-5" d="M1137.212,445.42a.975.975,0,0,1-.934-1.254,17.893,17.893,0,0,0,.1-9.914,19.771,19.771,0,1,1,24.611-20.179v.019l.007.221c.008.251.017.511.017.777a30.933,30.933,0,0,1-6.7,19.343,31.433,31.433,0,0,1-16.861,10.958A.98.98,0,0,1,1137.212,445.42Zm4.033-48.153a17.82,17.82,0,0,0-3.88,35.215.975.975,0,0,1,.719.661,19.838,19.838,0,0,1,.485,9.905,29.271,29.271,0,0,0,20.5-27.959c0-.232-.008-.464-.016-.71l-.007-.216A17.8,17.8,0,0,0,1141.245,397.267Z" transform="translate(-1121.474 -395.318)"/>
      </g>
      <g id="组_35" data-name="组 35" transform="translate(2.715 11.252)">
        <path id="路径_37" data-name="路径 37" class="cls-6" d="M1130.392,450.546a18.858,18.858,0,0,0-3.8,1.529,18.784,18.784,0,0,0,13.938,23.663,18.851,18.851,0,0,1,.064,10.989,18.8,18.8,0,0,0-10.2-36.181Z" transform="translate(-1124.847 -448.874)"/>
        <path id="路径_38" data-name="路径 38" class="cls-5" d="M1137.219,484.338a.975.975,0,0,1-.934-1.253,17.886,17.886,0,0,0,.1-9.893,19.77,19.77,0,0,1-14.1-24.756.973.973,0,0,1,.476-.584,19.9,19.9,0,0,1,4-1.608h0a19.77,19.77,0,0,1,10.728,38.057A.968.968,0,0,1,1137.219,484.338Zm-13.178-34.957a17.809,17.809,0,0,0,13.325,22.041.975.975,0,0,1,.719.661,19.822,19.822,0,0,1,.508,9.79,17.821,17.821,0,1,0-14.552-32.492Z" transform="translate(-1121.474 -445.51)"/>
      </g>
      <g id="组_36" data-name="组 36" transform="translate(34.045 22.553)">
        <path id="路径_39" data-name="路径 39" class="cls-7" d="M1273.931,501.569a5.013,5.013,0,1,0-.669,7.953,5.036,5.036,0,0,1,2.087,2.065,8.079,8.079,0,0,0-1.231-9.84C1274.057,501.685,1273.994,501.628,1273.931,501.569Z" transform="translate(-1264.59 -499.302)"/>
        <path id="路径_40" data-name="路径 40" class="cls-5" d="M1271.986,509.18h-.021a.974.974,0,0,1-.837-.512,4.067,4.067,0,0,0-1.247-1.4,5.987,5.987,0,1,1,1.34-9.8l.014.013.041.038c.056.053.113.106.168.161a9.039,9.039,0,0,1,1.379,11.028A.975.975,0,0,1,1271.986,509.18Zm-2.087-4.015a.975.975,0,0,1,.453.111,5.965,5.965,0,0,1,1.432,1.049,7.1,7.1,0,0,0-1.718-7.271c-.039-.039-.079-.076-.119-.114l-.038-.035a4.039,4.039,0,1,0-.534,6.412A.976.976,0,0,1,1269.9,505.166Z" transform="translate(-1261.227 -495.921)"/>
      </g>
      <g id="组_37" data-name="组 37" transform="translate(0 48.592)">
        <circle id="椭圆_4" data-name="椭圆 4" class="cls-8" cx="7.519" cy="7.519" r="7.519" transform="translate(0.975 0.975)"/>
        <path id="路径_41" data-name="路径 41" class="cls-5" d="M1117.856,629.054a8.493,8.493,0,1,1,8.493-8.493A8.5,8.5,0,0,1,1117.856,629.054Zm0-15.037a6.544,6.544,0,1,0,6.544,6.544A6.551,6.551,0,0,0,1117.856,614.017Z" transform="translate(-1109.363 -612.068)"/>
      </g>
      <g id="组_38" data-name="组 38" transform="translate(2.734 43.534)">
        <circle id="椭圆_5" data-name="椭圆 5" class="cls-9" cx="4.921" cy="4.921" r="4.921" transform="translate(0.975 0.975)"/>
        <path id="路径_42" data-name="路径 42" class="cls-5" d="M1127.454,601.3a5.9,5.9,0,1,1,5.9-5.9A5.9,5.9,0,0,1,1127.454,601.3Zm0-9.843a3.947,3.947,0,1,0,3.947,3.947A3.951,3.951,0,0,0,1127.454,591.455Z" transform="translate(-1121.558 -589.506)"/>
      </g>
    </g>
  </g>
</svg>
